<?xml version="1.0" encoding="UTF-8"?>
<svg version="1.1" xmlns="http://www.w3.org/2000/svg" width="200" height="214">
<path d="M0 0 C10.64560875 7.60843362 15.77328027 18.31515903 21.625 29.6875 C22.67815575 31.72277511 23.73154786 33.75792792 24.78515625 35.79296875 C25.3177002 36.82341309 25.85024414 37.85385742 26.39892578 38.91552734 C27.93977668 41.88397966 29.49581146 44.84382602 31.05859375 47.80078125 C36.99309307 59.04494373 42.66250642 70.37955923 48.09375 81.875 C50.43182567 86.8224198 52.81724458 91.74538755 55.21614075 96.66355896 C60.71606801 107.94649448 66.13853154 119.26460024 71.33477783 130.69110107 C72.1588242 132.49956759 72.99209176 134.30382362 73.82568359 136.10791016 C80.74305158 151.46389302 83.24086667 164.72984675 78 181 C72.12487728 194.23590865 63.29823531 202.63359018 50.0078125 208.2734375 C38.22499862 212.53725731 23.22912716 210.94968105 12 206 C2.66857609 201.59213002 -4.7646994 195.24266065 -12.38574219 188.42480469 C-14.87714144 186.22580196 -17.43651895 184.11429102 -20 182 C-20.8971875 183.2065625 -20.8971875 183.2065625 -21.8125 184.4375 C-32.12734266 196.75156778 -47.98038382 207.48395077 -64 210 C-78.19739482 210.98690927 -90.23111811 209.78315134 -101.9375 200.8125 C-111.54272525 192.25254927 -117.40351565 182.33289183 -118.44921875 169.38671875 C-119.46369767 148.99947924 -110.3505955 133.03113729 -101.54931641 115.15917969 C-99.16175897 110.29075969 -96.83201251 105.3951977 -94.5 100.5 C-93.5796741 98.5767047 -92.65910043 96.65352793 -91.73828125 94.73046875 C-89.95713542 91.00751484 -88.18437358 87.28074922 -86.41796875 83.55078125 C-80.16239002 70.37658485 -73.74684386 57.27883841 -67.27529907 44.20956421 C-66.31194287 42.26048275 -65.35203301 40.3096935 -64.39584351 38.35708618 C-47.34570099 3.57198287 -47.34570099 3.57198287 -31 -3 C-21.5088906 -6.14970445 -8.5669701 -4.91243571 0 0 Z M-37.29589844 20.72998047 C-40.0109792 24.34671699 -41.90555124 28.22681679 -43.8125 32.3125 C-44.6752089 34.09856286 -45.5398389 35.88369887 -46.40625 37.66796875 C-46.83808594 38.56306152 -47.26992187 39.4581543 -47.71484375 40.38037109 C-49.65884762 44.34297776 -51.73280803 48.23240483 -53.8125 52.125 C-63.50948299 70.40275264 -72.60263788 88.99725509 -81.44140625 107.703125 C-82.57704442 110.10532705 -83.71501433 112.50633723 -84.85546875 114.90625 C-86.53423635 118.43976025 -88.20739104 121.97588627 -89.8772583 125.51361084 C-90.53067699 126.89635462 -91.18553054 128.27842148 -91.84197998 129.659729 C-103.17727153 151.6865773 -103.17727153 151.6865773 -102.5 175.5625 C-98.8669238 184.54356598 -93.02372936 190.12287571 -84.296875 194.125 C-74.32729739 197.92293433 -64.29658818 196.24717275 -54.76171875 192.00390625 C-44.84634856 186.91413363 -36.62042839 179.01345908 -29 171 C-31.44710853 166.424971 -34.21670294 162.27453944 -37.25 158.0625 C-48.52051091 142.12124276 -56.54903241 123.81912698 -55 104 C-52.57420565 93.8694806 -47.52651961 86.01528438 -39 80 C-28.13485354 74.43328916 -17.2876035 73.5510356 -5.64453125 77.01953125 C2.94840243 80.20538997 9.48628597 86.02577188 14 94 C19.45889093 106.6207692 17.74075364 120.4159715 13 133 C7.46994617 146.28970558 -0.47823013 158.45437631 -9 170 C1.43671096 183.07260384 15.33360856 194.24003303 32.34375 196.28125 C40.84967601 196.64065532 48.6127544 194.12534638 55.18359375 188.72265625 C62.40146131 181.87732379 65.93675441 174.15395262 66.4375 164.1875 C65.82095024 151.50344889 59.36107224 139.83366686 53.9375 128.625 C53.17115681 127.02479673 52.40562095 125.4242066 51.64086914 123.82324219 C50.12860941 120.66077991 48.61158333 117.50068478 47.08984375 114.34277344 C45.28744516 110.60132568 43.4994329 106.85339375 41.71875 103.1015625 C37.5848413 94.39718858 33.40038917 85.72459141 29.05200195 77.12524414 C26.64058303 72.33714242 24.32906572 67.50571236 22.03393555 62.66088867 C16.6412183 51.28020884 11.02488591 40.05953203 5 29 C4.43539062 27.948125 3.87078125 26.89625 3.2890625 25.8125 C-0.29662574 19.43794312 -4.20178996 14.81653524 -10.875 11.625 C-22.02863733 9.39427253 -29.94507678 12.03852958 -37.29589844 20.72998047 Z M-36.375 96.375 C-41.07462723 102.41555347 -41.81511867 108.54011646 -41 116 C-37.65448462 131.60572744 -29.45771222 144.47852186 -20 157 C-15.74429004 155.50137528 -13.95428601 152.42249095 -11.6875 148.75 C-11.29868652 148.1302832 -10.90987305 147.51056641 -10.50927734 146.87207031 C-2.58645132 134.02301723 4.93404185 120.57978153 3 105 C0.99510663 98.47870703 -3.02524053 94.15670061 -8.5 90.1875 C-18.88539555 86.66388365 -28.9281206 88.32094099 -36.375 96.375 Z " fill="#FE595E" transform="translate(118,4)"/>
</svg>
